<?xml version="1.0" encoding="iso-8859-1"?>
<!-- Generator: Adobe Illustrator 19.0.0, SVG Export Plug-In . SVG Version: 6.00 Build 0)  -->
<svg version="1.1" id="Capa_1" xmlns="http://www.w3.org/2000/svg" xmlns:xlink="http://www.w3.org/1999/xlink" x="0px" y="0px"
	 viewBox="0 0 512 512" style="enable-background:new 0 0 512 512;" xml:space="preserve">
<path style="fill:#96D255;" d="M310.039,100.477L262.592,53.03c-3.119-3.118-7.347-4.87-11.757-4.87H8.314
	C3.722,48.16,0,51.882,0,56.473v99.763c0,4.591,3.722,8.314,8.314,8.314h242.521c4.41,0,8.639-1.752,11.757-4.87l47.447-47.447
	C313.285,108.987,313.285,103.723,310.039,100.477z"/>
<path style="fill:#BEE86E;" d="M409.802,250.122l-47.447-47.447c-3.119-3.118-7.347-4.87-11.757-4.87H8.314
	c-4.592,0-8.314,3.722-8.314,8.314v99.763c0,4.591,3.722,8.314,8.314,8.314h342.284c4.41,0,8.639-1.752,11.757-4.87l47.447-47.447
	C413.048,258.632,413.048,253.368,409.802,250.122z"/>
<path style="fill:#E1F573;" d="M509.565,399.766l-47.447-47.447c-3.119-3.118-7.347-4.87-11.757-4.87H8.314
	c-4.592,0-8.314,3.722-8.314,8.314v99.763c0,4.591,3.722,8.314,8.314,8.314h442.048c4.41,0,8.639-1.752,11.757-4.87l47.447-47.447
	C512.812,408.277,512.812,403.013,509.565,399.766z"/>
<g>
	<path style="fill:#FFFFFF;" d="M248.531,127.578L223.59,77.696c-1.413-2.817-4.287-4.595-7.437-4.595h-8.314
		c-3.15,0-6.024,1.778-7.437,4.595l-24.941,49.882c-2.054,4.108-0.39,9.101,3.718,11.155c4.108,2.038,9.101,0.39,11.155-3.718
		l6.016-12.032h31.29l6.016,12.032c1.461,2.915,4.392,4.595,7.445,4.595c1.25,0,2.517-0.284,3.71-0.877
		C248.921,136.679,250.585,131.686,248.531,127.578z M204.666,106.355l7.331-14.662l7.331,14.662H204.666z"/>
	<path style="fill:#FFFFFF;" d="M339.435,250.932c0.885-2.307,1.423-4.787,1.423-7.402c0-11.464-9.32-20.784-20.784-20.784h-29.098
		c-4.595,0-8.314,3.718-8.314,8.314V256v24.941c0,4.595,3.718,8.314,8.314,8.314h37.411c11.464,0,20.784-9.32,20.784-20.784
		C349.171,261.075,345.265,254.616,339.435,250.932z M299.29,239.373h20.784c2.289,0,4.157,1.867,4.157,4.157
		s-1.867,4.157-4.157,4.157H299.29V239.373z M328.387,272.627H299.29v-8.314h29.098c2.289,0,4.157,1.867,4.157,4.157
		S330.677,272.627,328.387,272.627z"/>
	<path style="fill:#FFFFFF;" d="M423.994,438.899h-8.314c-18.34,0-33.254-14.914-33.254-33.254s14.914-33.254,33.254-33.254h8.314
		c9.32,0,18.3,4.027,24.64,11.058c3.077,3.41,2.809,8.663-0.601,11.74c-3.402,3.077-8.655,2.817-11.74-0.601
		c-3.239-3.589-7.607-5.569-12.3-5.569h-8.314c-9.166,0-16.627,7.461-16.627,16.627s7.461,16.627,16.627,16.627h8.314
		c4.693,0,9.061-1.981,12.3-5.569c3.085-3.418,8.338-3.67,11.74-0.601c3.41,3.077,3.678,8.33,0.601,11.74
		C442.294,434.872,433.314,438.899,423.994,438.899z"/>
</g>
<path style="fill:#96D255;" d="M33.254,156.237V56.473c0-4.592,3.722-8.314,8.314-8.314H8.314C3.722,48.16,0,51.882,0,56.473v99.763
	c0,4.591,3.722,8.314,8.314,8.314h33.254C36.976,164.55,33.254,160.828,33.254,156.237z"/>
<path style="fill:#AFD755;" d="M33.254,305.882v-99.763c0-4.592,3.722-8.314,8.314-8.314H8.314c-4.592,0-8.314,3.722-8.314,8.314
	v99.763c0,4.591,3.722,8.314,8.314,8.314h33.254C36.976,314.195,33.254,310.473,33.254,305.882z"/>
<path style="fill:#87B950;" d="M33.254,156.237V56.473c0-4.592,3.722-8.314,8.314-8.314H8.314C3.722,48.16,0,51.882,0,56.473v99.763
	c0,4.591,3.722,8.314,8.314,8.314h33.254C36.976,164.55,33.254,160.828,33.254,156.237z"/>
<path style="fill:#C7E86E;" d="M33.254,455.527v-99.763c0-4.592,3.722-8.314,8.314-8.314H8.314c-4.592,0-8.314,3.722-8.314,8.314
	v99.763c0,4.591,3.722,8.314,8.314,8.314h33.254C36.976,463.84,33.254,460.118,33.254,455.527z"/>
<g>
</g>
<g>
</g>
<g>
</g>
<g>
</g>
<g>
</g>
<g>
</g>
<g>
</g>
<g>
</g>
<g>
</g>
<g>
</g>
<g>
</g>
<g>
</g>
<g>
</g>
<g>
</g>
<g>
</g>
</svg>
