<svg xmlns="http://www.w3.org/2000/svg" xmlns:xlink="http://www.w3.org/1999/xlink" id="Capa_1" x="0" y="0" enable-background="new 0 0 60 60" version="1.1" viewBox="0 0 60 60" xml:space="preserve"><path fill="#424A60" d="M55.392,20.5H4.608C2.616,20.5,1,18.884,1,16.892V5.108C1,3.116,2.616,1.5,4.608,1.5h50.783	C57.384,1.5,59,3.116,59,5.108v11.783C59,18.884,57.384,20.5,55.392,20.5z"/><circle cx="30" cy="53.5" r="4" fill="none" stroke="#424A60" stroke-linecap="round" stroke-miterlimit="10" stroke-width="2"/><path fill="#556080" d="M55.392,39.5H4.608C2.616,39.5,1,37.884,1,35.892V24.108C1,22.116,2.616,20.5,4.608,20.5h50.783	c1.993,0,3.608,1.616,3.608,3.608v11.783C59,37.884,57.384,39.5,55.392,39.5z"/><line x1="1" x2="26" y1="53.5" y2="53.5" fill="none" stroke="#424A60" stroke-linecap="round" stroke-miterlimit="10" stroke-width="2"/><line x1="34" x2="59" y1="53.5" y2="53.5" fill="none" stroke="#424A60" stroke-linecap="round" stroke-miterlimit="10" stroke-width="2"/><line x1="30" x2="30" y1="49.5" y2="39.5" fill="none" stroke="#424A60" stroke-miterlimit="10" stroke-width="2"/><circle cx="10.5" cy="11" r="3.5" fill="#7383BF"/><circle cx="10.5" cy="30" r="3.5" fill="#7383BF"/><g><circle cx="50" cy="9.5" r="1" fill="#7383BF"/><circle cx="46" cy="9.5" r="1" fill="#7383BF"/><circle cx="52" cy="12.5" r="1" fill="#7383BF"/><circle cx="48" cy="12.5" r="1" fill="#7383BF"/><circle cx="42" cy="9.5" r="1" fill="#7383BF"/><circle cx="44" cy="12.5" r="1" fill="#7383BF"/><circle cx="38" cy="9.5" r="1" fill="#7383BF"/><circle cx="40" cy="12.5" r="1" fill="#7383BF"/><circle cx="34" cy="9.5" r="1" fill="#7383BF"/><circle cx="36" cy="12.5" r="1" fill="#7383BF"/><circle cx="50" cy="28.5" r="1" fill="#7383BF"/><circle cx="46" cy="28.5" r="1" fill="#7383BF"/><circle cx="52" cy="31.5" r="1" fill="#7383BF"/><circle cx="48" cy="31.5" r="1" fill="#7383BF"/><circle cx="42" cy="28.5" r="1" fill="#7383BF"/><circle cx="44" cy="31.5" r="1" fill="#7383BF"/><circle cx="38" cy="28.5" r="1" fill="#7383BF"/><circle cx="40" cy="31.5" r="1" fill="#7383BF"/><circle cx="34" cy="28.5" r="1" fill="#7383BF"/><circle cx="36" cy="31.5" r="1" fill="#7383BF"/></g></svg>