<?xml version="1.0" encoding="iso-8859-1"?>
<!-- Generator: Adobe Illustrator 17.1.0, SVG Export Plug-In . SVG Version: 6.00 Build 0)  -->
<!DOCTYPE svg PUBLIC "-//W3C//DTD SVG 1.1//EN" "http://www.w3.org/Graphics/SVG/1.1/DTD/svg11.dtd">
<svg xmlns="http://www.w3.org/2000/svg" xmlns:xlink="http://www.w3.org/1999/xlink" version="1.1" id="Capa_1" x="0px" y="0px" viewBox="0 0 445.504 445.504" style="enable-background:new 0 0 445.504 445.504;" xml:space="preserve" width="512px" height="512px">
<path d="M177.369,251.841c-0.845,22.584,7.735,40.922,23.541,50.313c6.737,4.002,14.288,6.003,21.842,6.003  c7.551,0,15.106-2.001,21.841-6.002c15.806-9.39,24.387-27.729,23.542-50.313c-1.052-28.119-24.081-41.717-45.033-42.453  c-0.234-0.009-0.468-0.009-0.702,0C201.45,210.124,178.423,223.722,177.369,251.841z M197.355,252.589  c0.612-16.321,13.98-22.681,25.396-23.199c11.418,0.519,24.787,6.878,25.397,23.199c0.563,15.038-4.457,26.837-13.771,32.37  c-7.17,4.261-16.08,4.261-23.252,0C201.811,279.425,196.792,267.627,197.355,252.589z M336.87,251.841  c-0.846,22.584,7.734,40.922,23.541,50.313c6.735,4.002,14.288,6.003,21.841,6.003s15.105-2.001,21.841-6.003  c15.807-9.39,24.387-27.729,23.541-50.312c-1.052-28.119-24.08-41.717-45.031-42.453c-0.232-0.009-0.469-0.009-0.701,0  C360.948,210.124,337.918,223.723,336.87,251.841z M356.856,252.588c0.608-16.32,13.978-22.679,25.396-23.198  c11.417,0.519,24.785,6.878,25.396,23.199c0.563,15.039-4.456,26.837-13.77,32.37c-7.172,4.261-16.08,4.261-23.252,0  C361.312,279.426,356.293,267.628,356.856,252.588z M280.658,113.52c6.737,4.002,14.288,6.003,21.842,6.003  c7.552,0,15.105-2.001,21.841-6.003c15.807-9.39,24.388-27.729,23.543-50.314c-1.053-28.117-24.082-41.715-45.034-42.451  c-0.234-0.008-0.469-0.008-0.701,0c-20.95,0.736-43.979,14.334-45.031,42.451C256.272,85.791,264.852,104.129,280.658,113.52z   M277.103,63.955c0.611-16.32,13.979-22.679,25.396-23.197c11.418,0.518,24.787,6.877,25.398,23.197  c0.563,15.039-4.457,26.838-13.771,32.372c-7.173,4.261-16.083,4.26-23.252,0C281.559,90.792,276.54,78.993,277.103,63.955z   M41.41,302.154c6.736,4.001,14.289,6.002,21.841,6.002s15.105-2.001,21.842-6.003c15.806-9.39,24.387-27.728,23.542-50.313  c-1.054-28.118-24.083-41.716-45.033-42.452c-0.234-0.009-0.468-0.009-0.702,0c-20.952,0.735-43.981,14.334-45.034,42.453  C17.023,274.425,25.604,292.764,41.41,302.154z M37.854,252.589c0.61-16.321,13.98-22.68,25.398-23.199  c11.417,0.519,24.786,6.878,25.397,23.199c0.563,15.038-4.457,26.836-13.771,32.37c-7.171,4.26-16.082,4.26-23.253,0  C42.311,279.426,37.291,267.627,37.854,252.589z M285.836,412.443c1.006,5.43-2.581,10.652-8.012,11.658  c-0.615,0.114-1.229,0.177-1.833,0.177c-4.727,0-8.929-3.35-9.821-8.165l-8.816-47.564c-3.032-16.372-19.564-23.638-34.603-23.638  c-15.039,0-31.57,7.452-34.602,23.823l-6.627,36.021h45.526c5.522,0,10,4.477,10,10s-4.477,10-10,10h-57.548  c-2.971,0-5.788-1.568-7.688-3.853c-1.9-2.284-2.686-5.542-2.145-8.463l8.817-47.595c5.125-27.67,30.949-40.057,54.268-40.057  c23.319,0,49.143,12.386,54.269,40.057L285.836,412.443z M302.497,158.099c-15.037,0.001-31.567,7.329-34.598,23.699  c-1.006,5.431-6.226,9.016-11.653,8.013c-5.431-1.005-9.018-6.223-8.013-11.653c5.123-27.67,30.944-40.057,54.263-40.058  c23.321-0.002,49.148,12.383,54.275,40.057c1.006,5.431-2.581,10.648-8.012,11.654c-0.615,0.114-1.229,0.169-1.833,0.169  c-4.727,0-8.929-3.365-9.821-8.18C334.072,165.426,317.538,158.098,302.497,158.099z M437.324,424.101  c-0.615,0.114-1.229,0.177-1.833,0.177c-4.727,0-8.93-3.35-9.821-8.166l-8.814-47.564c-3.032-16.371-19.564-23.637-34.604-23.637  s-31.571,7.452-34.604,23.823l-6.628,36.021h45.526c5.522,0,10,4.477,10,10s-4.477,10-10,10h-57.549  c-2.971,0-5.788-1.568-7.688-3.853c-1.899-2.284-2.686-5.542-2.145-8.464l8.817-47.595c5.126-27.671,30.95-40.057,54.27-40.057  s49.144,12.386,54.27,40.057l8.814,47.595C446.341,417.87,442.754,423.095,437.324,424.101z M121.161,113.52  c6.736,4.002,14.288,6.003,21.84,6.003c7.553,0,15.105-2.001,21.842-6.003c15.806-9.39,24.386-27.729,23.541-50.312  c-1.049-28.118-24.078-41.717-45.031-42.452c-0.235-0.009-0.469-0.009-0.702,0c-20.952,0.736-43.981,14.334-45.033,42.451  C96.773,85.792,105.355,104.13,121.161,113.52z M117.605,63.954c0.61-16.32,13.98-22.678,25.397-23.197  c11.417,0.518,24.787,6.877,25.396,23.197c0.563,15.039-4.456,26.838-13.77,32.371c-7.171,4.26-16.08,4.261-23.251,0  C122.062,90.792,117.042,78.993,117.605,63.954z M126.338,412.443c1.005,5.431-2.582,10.652-8.012,11.658  c-0.616,0.114-1.229,0.177-1.833,0.177c-4.727,0-8.93-3.35-9.821-8.165l-8.815-47.564c-3.033-16.372-19.566-23.638-34.606-23.638  c-15.039,0-31.571,7.452-34.603,23.823l-6.625,36.021h48.447c5.523,0,10,4.477,10,10s-4.477,10-10,10H10  c-2.971,0-5.788-1.568-7.688-3.853s-2.686-5.542-2.145-8.464l8.814-47.595c5.125-27.67,30.949-40.057,54.268-40.057  c23.321-0.001,49.146,12.385,54.272,40.057L126.338,412.443z M143.002,158.099c-15.039,0-31.571,7.328-34.604,23.7  c-1.006,5.43-6.225,9.014-11.654,8.012c-5.43-1.006-9.018-6.224-8.011-11.654c5.125-27.671,30.949-40.057,54.269-40.057  s49.144,12.386,54.27,40.057c1.005,5.431-2.582,10.648-8.012,11.654c-0.616,0.114-1.229,0.169-1.833,0.169  c-4.727,0-8.93-3.366-9.822-8.181C174.573,165.427,158.041,158.099,143.002,158.099z" fill="#933EC5"/>
<g>
</g>
<g>
</g>
<g>
</g>
<g>
</g>
<g>
</g>
<g>
</g>
<g>
</g>
<g>
</g>
<g>
</g>
<g>
</g>
<g>
</g>
<g>
</g>
<g>
</g>
<g>
</g>
<g>
</g>
</svg>
