<svg xmlns="http://www.w3.org/2000/svg" xmlns:xlink="http://www.w3.org/1999/xlink" id="Capa_1" x="0" y="0" enable-background="new 0 0 51 51" version="1.1" viewBox="0 0 51 51" xml:space="preserve"><polygon fill="#694F87" points="25.5 29 9.7 19.973 .044 25.456 25.5 40 50.956 25.456 41.3 19.973"/><g><polygon fill="#556080" points="25.5 40 9.7 30.973 .044 36.456 25.5 51 50.956 36.456 41.3 30.973"/></g><g><circle cx="40.044" cy="21" r="1" fill="#BF4D90"/><circle cx="43.044" cy="24" r="1" fill="#BF4D90"/><circle cx="10.044" cy="21" r="1" fill="#BF4D90"/><circle cx="37.044" cy="24" r="1" fill="#BF4D90"/><circle cx="7.044" cy="24" r="1" fill="#BF4D90"/><circle cx="13.044" cy="24" r="1" fill="#BF4D90"/><circle cx="10.044" cy="27" r="1" fill="#BF4D90"/><circle cx="16.044" cy="27" r="1" fill="#BF4D90"/><circle cx="16.044" cy="33" r="1" fill="#BF4D90"/><circle cx="13.044" cy="30" r="1" fill="#BF4D90"/><circle cx="19.044" cy="30" r="1" fill="#BF4D90"/><circle cx="22.044" cy="33" r="1" fill="#BF4D90"/><circle cx="28.044" cy="33" r="1" fill="#BF4D90"/><circle cx="25.044" cy="30" r="1" fill="#BF4D90"/><circle cx="31.044" cy="30" r="1" fill="#BF4D90"/><circle cx="25.044" cy="36" r="1" fill="#BF4D90"/><circle cx="34.044" cy="27" r="1" fill="#BF4D90"/><circle cx="40.044" cy="27" r="1" fill="#BF4D90"/><circle cx="34.044" cy="33" r="1" fill="#BF4D90"/><circle cx="37.044" cy="30" r="1" fill="#BF4D90"/><circle cx="46.044" cy="27" r="1" fill="#BF4D90"/></g><polygon fill="#BF4D90" points="50.956 14.456 25.5 29 .044 14.456 25.5 0"/></svg>